<?xml version="1.0" encoding="UTF-8" ?>
<!DOCTYPE svg PUBLIC "-//W3C//DTD SVG 1.1//EN" "http://www.w3.org/Graphics/SVG/1.1/DTD/svg11.dtd">
<svg width="400pt" height="258pt" viewBox="0 0 400 258" version="1.1" xmlns="http://www.w3.org/2000/svg">
<path fill="#ffffff" d=" M 0.00 0.00 L 400.00 0.00 L 400.00 258.00 L 0.00 258.00 L 0.00 0.00 Z" />
<path fill="#f76559" d=" M 347.11 30.01 C 350.31 25.44 357.92 23.76 362.02 28.00 C 365.28 32.27 364.22 38.10 363.95 43.08 C 361.95 60.18 357.40 76.86 352.62 93.36 C 350.77 98.90 349.45 104.65 347.06 109.99 C 345.90 110.43 344.67 110.65 343.48 110.95 C 340.98 91.74 339.10 72.30 340.55 52.92 C 341.37 45.04 342.34 36.62 347.11 30.01 Z" />
<path fill="#f76559" d=" M 147.36 36.33 C 150.83 34.47 152.12 30.55 153.74 27.23 C 153.51 31.59 152.91 36.22 154.82 40.33 C 156.25 43.35 159.22 45.14 161.85 47.00 C 158.67 46.78 155.34 46.23 152.25 47.32 C 149.75 48.19 147.80 50.05 145.83 51.74 C 145.51 45.43 141.03 40.55 135.57 37.93 C 139.54 38.42 143.88 38.67 147.36 36.33 Z" />
<path fill="#f76559" d=" M 85.64 39.67 C 94.10 32.62 106.02 29.47 116.77 32.25 C 123.82 34.03 129.73 39.74 131.41 46.87 C 134.68 60.30 129.85 74.74 120.82 84.89 C 114.42 91.70 106.62 98.43 97.03 99.68 C 95.15 100.24 94.49 98.23 93.53 97.08 C 105.94 91.17 112.34 77.69 114.84 64.81 C 116.05 57.54 116.73 49.50 113.15 42.78 C 110.44 37.34 101.64 35.64 97.98 40.94 C 93.66 46.89 92.11 54.26 90.27 61.24 C 82.96 92.40 79.49 125.02 65.20 154.08 C 82.93 154.12 100.26 158.59 117.02 164.00 C 141.63 172.05 165.35 182.52 189.76 191.12 C 205.39 196.54 221.40 201.51 237.97 202.90 C 249.79 203.85 262.22 202.63 272.73 196.76 C 280.67 192.46 286.94 185.65 291.73 178.09 C 292.84 178.37 293.95 178.65 295.07 178.93 C 293.91 193.28 287.48 207.12 277.08 217.09 C 264.19 229.66 245.98 236.26 228.05 235.66 C 214.91 235.21 202.09 231.60 189.91 226.85 C 157.99 214.24 129.65 194.53 99.32 178.75 C 86.62 172.24 73.39 166.11 59.14 164.07 C 52.42 173.52 42.79 181.60 31.05 183.51 C 27.85 183.95 23.56 184.71 21.35 181.70 C 19.76 178.60 21.78 175.13 23.54 172.56 C 30.37 163.46 40.94 157.82 51.86 155.24 C 59.19 126.56 59.20 96.41 68.37 68.15 C 71.88 57.57 76.93 46.95 85.64 39.67 Z" />
<path fill="#f76559" d=" M 309.57 32.52 C 312.02 35.98 314.37 39.79 318.20 41.89 C 321.22 43.56 324.82 43.04 328.12 43.00 C 325.50 44.67 322.68 46.30 320.91 48.94 C 319.39 51.20 318.96 53.95 318.38 56.56 C 314.27 51.68 307.62 50.70 301.66 52.03 C 305.06 50.11 308.55 47.75 309.97 43.92 C 311.77 40.27 310.38 36.23 309.57 32.52 Z" />
<path fill="#ffffff" d=" M 142.12 40.34 C 145.41 39.62 148.51 38.28 151.29 36.40 C 152.06 39.53 153.45 42.46 155.53 44.94 C 151.76 45.86 148.44 47.97 146.06 51.03 C 146.09 47.07 144.63 43.37 142.12 40.34 Z" />
<path fill="#ffffff" d=" M 313.27 41.11 C 315.81 43.12 318.75 44.54 321.92 45.23 C 319.49 48.23 318.28 51.94 318.14 55.77 C 315.70 52.73 312.35 50.67 308.54 49.83 C 310.67 47.25 312.23 44.28 313.27 41.11 Z" />
<path fill="#f76559" d=" M 170.94 50.92 C 178.34 47.68 186.96 45.83 194.87 48.25 C 201.44 50.18 206.56 56.98 205.29 63.95 C 204.43 70.24 196.94 74.57 191.14 71.85 C 186.97 69.91 186.11 64.52 187.39 60.51 C 188.45 56.56 191.77 53.98 194.56 51.27 C 190.84 50.62 186.64 50.05 183.39 52.46 C 177.06 56.93 173.54 64.35 171.42 71.61 C 169.71 77.42 169.57 83.76 171.93 89.42 C 177.77 87.89 183.87 85.89 189.95 87.12 C 192.13 87.50 194.31 89.61 193.45 91.98 C 192.47 94.75 189.77 96.46 187.14 97.46 C 182.00 99.32 176.40 98.92 171.08 98.22 C 164.19 107.82 161.13 120.10 162.64 131.80 C 163.34 135.98 165.04 140.90 169.40 142.47 C 174.08 143.64 178.77 141.14 182.37 138.34 C 189.80 132.18 194.29 123.19 196.90 114.05 C 198.75 108.12 198.10 101.78 199.73 95.80 C 202.80 83.97 210.43 73.17 221.05 66.99 C 225.99 64.21 232.08 62.43 237.62 64.43 C 241.88 66.03 244.46 70.46 244.85 74.85 C 245.89 85.53 239.93 96.34 230.80 101.79 C 226.34 104.61 221.03 105.40 215.86 105.76 C 216.08 111.12 215.91 117.17 219.43 121.59 C 222.19 125.10 227.65 124.52 230.68 121.69 C 235.47 117.45 236.81 110.94 239.24 105.31 C 241.26 100.52 245.72 96.71 250.93 96.01 C 259.14 94.87 266.84 99.98 275.05 98.59 C 279.24 97.93 282.28 94.71 284.91 91.66 C 286.35 91.84 287.79 92.02 289.24 92.20 C 281.69 107.70 273.36 122.82 264.63 137.68 C 258.95 147.15 253.21 156.64 246.22 165.22 C 250.92 164.24 255.82 163.47 260.57 164.59 C 265.86 165.59 271.78 167.59 276.85 164.84 C 282.00 161.19 281.49 153.95 280.24 148.49 C 276.90 134.57 277.46 119.16 284.50 106.42 C 289.23 97.70 297.68 90.14 307.92 89.32 C 311.58 88.76 314.84 90.74 317.94 92.36 C 318.31 87.90 319.02 82.75 316.02 78.98 C 313.26 75.39 308.23 74.97 304.09 75.72 C 296.44 77.10 289.39 80.68 282.88 84.80 C 278.36 87.59 274.41 91.25 269.58 93.51 C 271.41 87.40 276.39 83.10 280.88 78.89 C 287.31 73.32 294.66 68.15 303.21 66.67 C 310.43 65.43 318.57 66.77 324.01 71.98 C 329.03 76.89 330.65 84.24 330.50 91.04 C 328.88 109.62 325.41 128.40 328.19 147.05 C 329.15 154.31 332.96 160.93 338.69 165.49 C 337.20 167.04 335.30 168.45 333.21 166.94 C 321.83 160.82 314.95 148.48 313.13 135.95 C 310.18 143.02 306.79 150.91 299.65 154.65 C 294.35 157.33 288.20 155.27 283.64 152.08 C 284.00 158.00 283.70 164.33 280.36 169.45 C 276.11 176.23 267.64 179.29 259.90 178.69 C 252.46 178.10 244.96 176.55 237.49 177.71 C 233.59 178.34 230.38 180.79 227.33 183.14 C 226.96 181.49 226.59 179.84 226.22 178.20 C 236.30 165.59 246.23 152.85 255.77 139.81 C 263.49 129.08 271.34 118.19 276.07 105.74 C 271.33 110.78 265.31 115.65 257.99 115.43 C 252.58 115.55 248.08 112.19 244.30 108.69 C 241.46 116.52 236.93 124.21 229.62 128.59 C 223.19 132.54 214.46 133.35 207.96 129.13 C 203.88 126.69 201.51 122.39 199.77 118.13 C 197.13 127.75 192.48 137.24 184.70 143.74 C 176.65 150.47 164.92 152.35 155.08 148.87 C 147.32 146.08 142.62 137.97 142.46 129.95 C 141.94 115.38 150.79 101.80 162.75 94.05 C 157.61 89.51 154.25 82.95 154.35 76.02 C 154.03 65.23 161.24 55.21 170.94 50.92 Z" />
<path fill="#f76559" d=" M 258.02 70.13 C 261.28 67.91 262.17 63.89 263.41 60.40 C 263.69 64.68 263.64 69.24 265.90 73.04 C 267.58 75.97 270.83 77.37 273.66 78.92 C 267.84 78.52 261.70 80.42 258.52 85.63 C 257.53 83.05 256.74 80.27 254.84 78.17 C 252.71 75.71 249.64 74.41 246.74 73.12 C 250.65 73.07 254.87 72.74 258.02 70.13 Z" />
<path fill="#ffffff" d=" M 227.22 70.06 C 228.93 68.75 232.00 69.59 232.04 71.98 C 232.94 80.38 231.64 89.52 226.68 96.55 C 224.27 100.12 220.20 101.89 216.11 102.72 C 216.92 94.00 218.78 85.30 222.28 77.25 C 223.52 74.63 224.83 71.83 227.22 70.06 Z" />
<path fill="#ffffff" d=" M 253.41 74.64 C 256.58 73.56 259.51 71.90 261.97 69.62 C 263.10 72.68 264.85 75.48 267.31 77.66 C 263.59 78.93 260.61 81.53 258.49 84.81 C 258.01 80.90 256.23 77.37 253.41 74.64 Z" />
<path fill="#f76559" d=" M 141.94 96.72 C 145.71 96.03 148.39 93.09 150.81 90.36 C 152.15 90.53 153.50 90.69 154.85 90.86 C 145.70 108.73 134.27 125.45 121.26 140.73 C 126.28 139.75 131.65 139.56 136.38 141.78 C 142.39 144.34 147.08 149.00 152.34 152.71 C 155.58 155.14 159.69 155.73 163.29 157.42 C 158.47 161.27 152.36 163.98 146.07 163.16 C 135.94 162.25 128.08 154.81 118.41 152.43 C 113.69 151.26 108.85 153.04 105.08 155.88 C 104.33 154.82 103.58 153.77 102.83 152.72 C 106.81 147.67 112.90 144.96 116.86 139.92 C 126.46 128.67 134.90 116.47 142.37 103.72 C 138.21 107.90 133.18 112.06 126.97 112.15 C 121.10 112.53 116.13 109.04 111.36 106.15 C 111.19 110.54 113.12 114.51 116.47 117.27 C 114.57 118.15 112.48 119.77 110.30 118.71 C 107.38 116.90 106.95 113.03 107.11 109.90 C 107.40 103.23 111.59 96.25 118.37 94.58 C 126.36 92.73 133.95 98.18 141.94 96.72 Z" />
<path fill="#ffffff" d=" M 178.01 92.09 C 181.35 91.64 184.75 91.25 188.09 91.93 C 184.86 93.52 181.26 93.73 177.75 94.01 C 177.81 93.53 177.94 92.57 178.01 92.09 Z" />
<path fill="#ffffff" d=" M 308.38 95.38 C 311.01 93.66 313.93 95.54 316.47 96.49 C 314.46 105.19 312.76 114.01 312.60 122.97 C 312.77 130.59 310.08 138.33 305.07 144.09 C 303.65 145.37 301.11 147.82 299.52 145.56 C 297.61 142.78 297.64 139.20 297.39 135.97 C 297.19 125.73 298.56 115.39 301.84 105.67 C 303.26 101.88 304.89 97.72 308.38 95.38 Z" />
<path fill="#f76559" d=" M 335.51 137.24 C 335.48 129.32 335.50 121.39 335.50 113.47 C 342.34 117.41 349.17 121.40 355.98 125.40 C 349.14 129.32 342.36 133.35 335.51 137.24 Z" />
<path fill="#f76559" d=" M 223.86 147.57 C 228.04 147.11 230.76 143.65 233.48 140.85 C 231.82 144.98 229.76 149.29 230.37 153.87 C 230.87 157.07 233.05 159.62 234.91 162.16 C 232.33 161.03 229.74 159.77 226.92 159.44 C 223.90 159.10 221.05 160.38 218.32 161.46 C 218.52 158.68 218.97 155.78 218.01 153.09 C 217.03 149.95 214.76 147.49 212.71 145.01 C 216.13 146.80 219.92 148.43 223.86 147.57 Z" />
<path fill="#ffffff" d=" M 218.36 149.62 C 221.66 149.87 224.99 149.66 228.18 148.75 C 228.01 151.95 228.35 155.16 229.54 158.16 C 225.71 157.79 222.00 158.86 218.74 160.84 C 219.82 157.13 219.69 153.24 218.36 149.62 Z" />
<path fill="#f76559" d=" M 179.78 158.94 C 183.64 160.82 187.61 163.13 192.05 163.00 C 195.47 162.91 198.33 160.75 201.14 159.06 C 199.65 161.87 197.88 164.72 197.69 167.99 C 197.52 170.64 198.51 173.15 199.36 175.60 C 193.22 173.54 186.83 175.77 182.27 180.09 C 184.32 176.75 186.34 173.05 185.73 168.98 C 185.57 164.82 182.31 161.86 179.78 158.94 Z" />
<path fill="#ffffff" d=" M 26.31 179.27 C 29.81 170.19 40.11 166.14 48.88 163.97 C 46.37 169.58 43.03 175.41 37.28 178.21 C 33.92 180.03 29.96 180.03 26.31 179.27 Z" />
<path fill="#ffffff" d=" M 187.22 164.75 C 190.41 165.10 193.63 164.97 196.74 164.16 C 196.08 167.97 196.88 171.75 198.75 175.10 C 195.07 173.79 191.16 173.50 187.39 174.61 C 187.90 171.33 187.85 168.01 187.22 164.75 Z" />
</svg>
